<svg width="48" height="32" viewBox="0 0 48 32" fill="none" xmlns="http://www.w3.org/2000/svg">
<path d="M32.6911 9.82479C31.6042 7.21626 29.0554 5.51709 26.2295 5.51709H10.4996C5.50458 5.51709 2.11691 10.5986 4.03809 15.2094L9.23923 27.6922C10.3261 30.3007 12.8749 31.9999 15.7008 31.9999H31.4307C36.4257 31.9999 39.8134 26.9184 37.8922 22.3075L32.6911 9.82479Z" fill="#FDC06F"/>
<path d="M38.2096 4.3077C37.1227 1.69917 34.574 0 31.7481 0H16.0182C11.0231 0 7.63547 5.08149 9.55664 9.69231L14.7578 22.1751C15.8447 24.7836 18.3934 26.4828 21.2193 26.4828H36.9492C41.9443 26.4828 45.3319 21.4013 43.4108 16.7905L38.2096 4.3077Z" fill="url(#paint0_linear_164_1134)" fill-opacity="0.7"/>
<path d="M21.5692 19.208C21.0572 19.208 20.6146 19.096 20.2412 18.872C19.8732 18.6427 19.5879 18.344 19.3852 17.976C19.1879 17.608 19.0892 17.2133 19.0892 16.792C19.0892 16.3493 19.2199 15.9307 19.4812 15.536C19.7426 15.1413 20.1906 14.808 20.8252 14.536C21.4652 14.2587 22.3479 14.0773 23.4732 13.992C23.4359 14.2427 23.3746 14.4747 23.2892 14.688C23.2039 14.896 23.0866 15.0693 22.9372 15.208C22.7932 15.3467 22.6092 15.4373 22.3852 15.48C22.1186 15.5227 21.8999 15.5973 21.7292 15.704C21.5586 15.8107 21.4332 15.9413 21.3532 16.096C21.2732 16.2453 21.2332 16.408 21.2332 16.584C21.2332 16.8613 21.3319 17.0933 21.5292 17.28C21.7266 17.4667 21.9639 17.56 22.2412 17.56C22.5452 17.56 22.8519 17.456 23.1612 17.248C23.4759 17.0347 23.7719 16.7653 24.0492 16.44V14.024C24.0492 13.4693 23.8946 13.0267 23.5852 12.696C23.2812 12.3653 22.8492 12.2 22.2892 12.2C22.0279 12.2 21.7452 12.2267 21.4412 12.28C21.1372 12.3333 20.7959 12.4293 20.4172 12.568L19.8732 11.16C20.3479 10.9413 20.8359 10.7867 21.3372 10.696C21.8439 10.6 22.2839 10.552 22.6572 10.552C23.7932 10.552 24.6679 10.8507 25.2812 11.448C25.8999 12.0453 26.2092 12.904 26.2092 14.024V16.984C26.2092 17.2773 26.2279 17.592 26.2652 17.928C26.3026 18.264 26.3692 18.6213 26.4652 19H24.8172C24.6732 18.92 24.5532 18.808 24.4572 18.664C24.3666 18.5147 24.2892 18.36 24.2252 18.2L24.1772 17.88L23.9852 18.152C23.5052 18.5893 23.0839 18.8747 22.7212 19.008C22.3639 19.1413 21.9799 19.208 21.5692 19.208ZM29.0411 19V10.728H31.2811V19H29.0411ZM30.1611 9.64C29.7931 9.64 29.4811 9.51467 29.2251 9.264C28.9744 9.008 28.8491 8.696 28.8491 8.328C28.8491 7.94933 28.9744 7.632 29.2251 7.376C29.4811 7.11467 29.7931 6.984 30.1611 6.984C30.5291 6.984 30.8384 7.11467 31.0891 7.376C31.3451 7.632 31.4731 7.94933 31.4731 8.328C31.4731 8.696 31.3451 9.008 31.0891 9.264C30.8384 9.51467 30.5291 9.64 30.1611 9.64Z" fill="white"/>
<defs>
<linearGradient id="paint0_linear_164_1134" x1="47.4492" y1="0" x2="4.03843" y2="2.70112" gradientUnits="userSpaceOnUse">
<stop stop-color="#6E28FA"/>
<stop offset="1" stop-color="#6E28FA"/>
</linearGradient>
</defs>
</svg>
