<svg width="122" height="25" viewBox="0 0 122 25" fill="none" xmlns="http://www.w3.org/2000/svg">
<path d="M-0.0079999 19V1.768C0.856 1.624 1.588 1.512 2.188 1.432C2.788 1.352 3.34 1.296 3.844 1.264C4.348 1.232 4.888 1.216 5.464 1.216C6.76 1.216 7.924 1.436 8.956 1.876C9.996 2.316 10.816 2.948 11.416 3.772C12.024 4.588 12.328 5.56 12.328 6.688C12.328 7.752 12.06 8.672 11.524 9.448C10.996 10.216 10.308 10.824 9.46 11.272C8.612 11.712 7.712 11.976 6.76 12.064C6.4 12.096 6.016 12.1 5.608 12.076C5.208 12.052 4.784 11.976 4.336 11.848C4.456 11.544 4.608 11.232 4.792 10.912C4.976 10.584 5.2 10.304 5.464 10.072C5.728 9.832 6.04 9.696 6.4 9.664C6.84 9.624 7.24 9.468 7.6 9.196C7.968 8.916 8.26 8.56 8.476 8.128C8.692 7.688 8.8 7.208 8.8 6.688C8.8 6.136 8.66 5.636 8.38 5.188C8.1 4.732 7.708 4.368 7.204 4.096C6.708 3.824 6.128 3.688 5.464 3.688C5.032 3.688 4.696 3.7 4.456 3.724C4.216 3.748 3.88 3.784 3.448 3.832V19H-0.0079999ZM16.3019 19V6.592H19.6619V19H16.3019ZM17.9819 4.96C17.4299 4.96 16.9619 4.772 16.5779 4.396C16.2019 4.012 16.0139 3.544 16.0139 2.992C16.0139 2.424 16.2019 1.948 16.5779 1.564C16.9619 1.172 17.4299 0.975999 17.9819 0.975999C18.5339 0.975999 18.9979 1.172 19.3739 1.564C19.7579 1.948 19.9499 2.424 19.9499 2.992C19.9499 3.544 19.7579 4.012 19.3739 4.396C18.9979 4.772 18.5339 4.96 17.9819 4.96ZM25.0684 19V8.968H23.0764V7.072L25.0684 6.592V5.92C25.0684 4.872 25.2804 3.956 25.7044 3.172C26.1364 2.388 26.7444 1.78 27.5284 1.348C28.3204 0.908 29.2524 0.688 30.3244 0.688C30.7244 0.688 31.2004 0.739999 31.7524 0.843998C32.3044 0.939999 32.8924 1.128 33.5164 1.408L32.7724 3.544C32.3084 3.408 31.9124 3.312 31.5844 3.256C31.2644 3.192 30.9644 3.16 30.6844 3.16C30.1644 3.16 29.7204 3.276 29.3524 3.508C28.9924 3.732 28.7164 4.052 28.5244 4.468C28.3324 4.884 28.2364 5.368 28.2364 5.92V19H25.0684ZM29.0524 8.968C29.1564 8.616 29.3044 8.256 29.4964 7.888C29.6964 7.52 29.9564 7.212 30.2764 6.964C30.5964 6.716 30.9884 6.592 31.4524 6.592H32.5084V8.968H29.0524ZM38.905 19.312C38.137 19.312 37.473 19.144 36.913 18.808C36.361 18.464 35.933 18.016 35.629 17.464C35.333 16.912 35.185 16.32 35.185 15.688C35.185 15.024 35.381 14.396 35.773 13.804C36.165 13.212 36.837 12.712 37.789 12.304C38.749 11.888 40.073 11.616 41.761 11.488C41.705 11.864 41.613 12.212 41.485 12.532C41.357 12.844 41.181 13.104 40.957 13.312C40.741 13.52 40.465 13.656 40.129 13.72C39.729 13.784 39.401 13.896 39.145 14.056C38.889 14.216 38.701 14.412 38.581 14.644C38.461 14.868 38.401 15.112 38.401 15.376C38.401 15.792 38.549 16.14 38.845 16.42C39.141 16.7 39.497 16.84 39.913 16.84C40.369 16.84 40.829 16.684 41.293 16.372C41.765 16.052 42.209 15.648 42.625 15.16V11.536C42.625 10.704 42.393 10.04 41.929 9.544C41.473 9.048 40.825 8.8 39.985 8.8C39.593 8.8 39.169 8.84 38.713 8.92C38.257 9 37.745 9.144 37.177 9.352L36.361 7.24C37.073 6.912 37.805 6.68 38.557 6.544C39.317 6.4 39.977 6.328 40.537 6.328C42.241 6.328 43.553 6.776 44.473 7.672C45.401 8.568 45.865 9.856 45.865 11.536V15.976C45.865 16.416 45.893 16.888 45.949 17.392C46.005 17.896 46.105 18.432 46.249 19H43.777C43.561 18.88 43.381 18.712 43.237 18.496C43.101 18.272 42.985 18.04 42.889 17.8L42.817 17.32L42.529 17.728C41.809 18.384 41.177 18.812 40.633 19.012C40.097 19.212 39.521 19.312 38.905 19.312ZM54.7688 25C54.1448 25 53.4288 24.932 52.6208 24.796C51.8208 24.668 50.9528 24.4 50.0168 23.992L50.8568 21.76C51.6648 22.08 52.3608 22.3 52.9448 22.42C53.5288 22.54 54.0728 22.6 54.5768 22.6C55.1688 22.6 55.7128 22.476 56.2088 22.228C56.7128 21.98 57.1128 21.608 57.4088 21.112C57.7128 20.616 57.8648 20 57.8648 19.264V8.968C57.5528 8.896 57.2608 8.848 56.9888 8.824C56.7168 8.792 56.4968 8.776 56.3288 8.776C55.2408 8.776 54.4128 9.192 53.8448 10.024C53.2768 10.848 52.9928 11.92 52.9928 13.24C52.9928 13.752 53.0488 14.28 53.1608 14.824C53.2808 15.368 53.4888 15.824 53.7848 16.192C54.0888 16.56 54.5128 16.736 55.0568 16.72C55.5368 16.704 55.9128 16.864 56.1848 17.2C56.4648 17.528 56.7368 17.92 57.0008 18.376C56.5608 18.616 56.1008 18.816 55.6208 18.976C55.1408 19.136 54.6968 19.216 54.2888 19.216C53.5208 19.216 52.8328 19.044 52.2248 18.7C51.6248 18.348 51.1168 17.884 50.7008 17.308C50.2848 16.724 49.9648 16.08 49.7408 15.376C49.5248 14.664 49.4168 13.952 49.4168 13.24C49.4168 11.968 49.6848 10.808 50.2208 9.76C50.7568 8.704 51.5288 7.864 52.5368 7.24C53.5448 6.616 54.7608 6.304 56.1848 6.304C56.6408 6.304 57.0968 6.324 57.5528 6.364C58.0088 6.396 58.5208 6.464 59.0888 6.568C59.6568 6.672 60.3368 6.824 61.1288 7.024V19C61.1288 20.464 60.8408 21.632 60.2648 22.504C59.6968 23.384 58.9288 24.02 57.9608 24.412C57.0008 24.804 55.9368 25 54.7688 25ZM71.0605 19.312C69.9325 19.312 68.8805 19.06 67.9045 18.556C66.9285 18.044 66.1365 17.304 65.5285 16.336C64.9285 15.36 64.6285 14.176 64.6285 12.784C64.6285 11.656 64.8285 10.684 65.2285 9.868C65.6365 9.044 66.1645 8.368 66.8125 7.84C67.4605 7.312 68.1565 6.92 68.9005 6.664C69.6525 6.408 70.3725 6.28 71.0605 6.28C72.3325 6.28 73.4485 6.556 74.4085 7.108C75.3765 7.66 76.1325 8.428 76.6765 9.412C77.2205 10.388 77.4925 11.512 77.4925 12.784C77.4925 13.8 77.3085 14.712 76.9405 15.52C76.5725 16.328 76.0805 17.016 75.4645 17.584C74.8485 18.144 74.1565 18.572 73.3885 18.868C72.6285 19.164 71.8525 19.312 71.0605 19.312ZM71.0605 16.864C71.6845 16.864 72.2085 16.68 72.6325 16.312C73.0565 15.944 73.3765 15.452 73.5925 14.836C73.8085 14.22 73.9165 13.536 73.9165 12.784C73.9165 12.04 73.8085 11.36 73.5925 10.744C73.3765 10.128 73.0565 9.64 72.6325 9.28C72.2085 8.912 71.6845 8.728 71.0605 8.728C70.4365 8.728 69.9085 8.912 69.4765 9.28C69.0525 9.64 68.7285 10.128 68.5045 10.744C68.2885 11.36 68.1805 12.04 68.1805 12.784C68.1805 13.984 68.4405 14.964 68.9605 15.724C69.4885 16.484 70.1885 16.864 71.0605 16.864ZM81.2449 19V9.616C81.2449 9.168 81.2169 8.692 81.1609 8.188C81.1049 7.684 81.0049 7.152 80.8609 6.592H83.4049C83.5409 6.696 83.6849 6.916 83.8369 7.252C83.9889 7.588 84.0929 7.96 84.1489 8.368L84.1969 8.944L84.4369 8.368C84.7649 7.728 85.1849 7.232 85.6969 6.88C86.2169 6.528 86.7329 6.352 87.2449 6.352C87.5009 6.352 87.7529 6.376 88.0009 6.424C88.2489 6.472 88.5169 6.544 88.8049 6.64L88.4209 9.352C88.1009 9.256 87.8329 9.192 87.6169 9.16C87.4009 9.128 87.1969 9.112 87.0049 9.112C86.4609 9.112 85.9929 9.292 85.6009 9.652C85.2089 10.004 84.9089 10.488 84.7009 11.104C84.4929 11.72 84.3889 12.424 84.3889 13.216V19H81.2449ZM98.32 19L104.584 1.552H107.944L114.208 19H110.656L106.336 6.016L106.144 5.128L105.928 6.064L103.888 12.28L103.6 12.76L103.96 12.712H105.784C106.248 12.712 106.636 12.844 106.948 13.108C107.268 13.372 107.524 13.696 107.716 14.08C107.916 14.464 108.072 14.832 108.184 15.184H102.976L101.704 19H98.32ZM118.112 19V1.552H121.448V19H118.112Z" fill="#111827"/>
</svg>
